SplineFontDB: 3.2
FontName: SCDANH+MARTIN-Regular
FullName: SCDANH+MARTIN-Regular
FamilyName: SCDANH+MARTIN-Regular
Weight: Book
Copyright: Copyright \\(c\\) 2018 by Tr_ Seals. All rights reserved.
Version: 1.0
ItalicAngle: 0
UnderlinePosition: -150
UnderlineWidth: 50
Ascent: 800
Descent: 200
InvalidEm: 0
sfntRevision: 0x00000000
LayerCount: 2
Layer: 0 1 "Back" 1
Layer: 1 1 "Fore" 0
XUID: [1021 773 1362042375 6161405]
StyleMap: 0x0040
FSType: 0
OS2Version: 1
OS2_WeightWidthSlopeOnly: 0
OS2_UseTypoMetrics: 0
CreationTime: 0
ModificationTime: 1623598473
PfmFamily: 17
TTFWeight: 400
TTFWidth: 5
LineGap: 90
VLineGap: 0
Panose: 2 0 5 3 0 0 0 0 0 0
OS2TypoAscent: 800
OS2TypoAOffset: 0
OS2TypoDescent: -200
OS2TypoDOffset: 0
OS2TypoLinegap: 90
OS2WinAscent: 591
OS2WinAOffset: 0
OS2WinDescent: 10
OS2WinDOffset: 0
HheadAscent: 591
HheadAOffset: 0
HheadDescent: -10
HheadDOffset: 0
OS2SubXSize: 650
OS2SubYSize: 700
OS2SubXOff: 0
OS2SubYOff: 140
OS2SupXSize: 650
OS2SupYSize: 700
OS2SupXOff: 0
OS2SupYOff: 480
OS2StrikeYSize: 49
OS2StrikeYPos: 258
OS2Vendor: 'PfEd'
OS2CodePages: 00000001.00000000
OS2UnicodeRanges: 80000001.00000000.00000000.00000000
DEI: 91125
ShortTable: maxp 16
  1
  0
  30
  40
  3
  0
  0
  2
  0
  1
  1
  0
  64
  0
  0
  0
EndShort
LangName: 1033 "" "" "" "FontForge 2.0 : SCDANH+-MARTIN-Regular : 11-6-2021" "" "Version 1.0"
GaspTable: 1 65535 2 0
Encoding: UnicodeBmp
UnicodeInterp: none
NameList: AGL For New Fonts
DisplaySize: -48
AntiAlias: 1
FitToEm: 0
WinInfo: 0 38 14
BeginChars: 65539 54

StartChar: exclam
Encoding: 33 33 4
Width: 183
GlyphClass: 2
Flags: W
LayerCount: 2
Fore
SplineSet
72 143 m 1,0,-1
 8 580 l 1,1,-1
 176 580 l 1,2,-1
 109 143 l 1,3,-1
 72 143 l 1,0,-1
24 2 m 1,4,-1
 24 111 l 1,5,-1
 160 111 l 1,6,-1
 160 2 l 1,7,-1
 24 2 l 1,4,-1
EndSplineSet
EndChar

StartChar: period
Encoding: 46 46 5
Width: 172
GlyphClass: 2
Flags: W
LayerCount: 2
Fore
SplineSet
18 0 m 1,0,-1
 18 125 l 1,1,-1
 154 125 l 1,2,-1
 154 0 l 1,3,-1
 18 0 l 1,0,-1
EndSplineSet
EndChar

StartChar: A
Encoding: 65 65 6
Width: 312
GlyphClass: 2
Flags: W
LayerCount: 2
Fore
SplineSet
314 0 m 1,0,-1
 184 0 l 1,1,-1
 176 64 l 1,2,-1
 109 64 l 1,3,-1
 102 0 l 1,4,-1
 7 0 l 1,5,-1
 91 580 l 1,6,-1
 212 580 l 1,7,-1
 314 0 l 1,0,-1
163 136 m 1,8,-1
 141 306 l 1,9,-1
 140 306 l 1,10,-1
 116 136 l 1,11,-1
 163 136 l 1,8,-1
EndSplineSet
EndChar

StartChar: B
Encoding: 66 66 7
Width: 351
GlyphClass: 2
Flags: W
LayerCount: 2
Fore
SplineSet
335 225 m 2,0,-1
 334 144 l 2,1,2
 333 83 333 83 296 41.5 c 128,-1,3
 259 0 259 0 195 0 c 2,4,-1
 27 0 l 1,5,-1
 27 580 l 1,6,-1
 194 580 l 2,7,8
 258 580 258 580 295.5 538.5 c 128,-1,9
 333 497 333 497 333 436 c 0,10,11
 333 376 333 376 320 351.5 c 128,-1,12
 307 327 307 327 275 314 c 1,13,-1
 275 312 l 1,14,15
 335 286 335 286 335 225 c 2,0,-1
153 351 m 1,16,-1
 166 351 l 2,17,18
 187 352 187 352 198.5 366 c 128,-1,19
 210 380 210 380 210 402 c 2,20,-1
 210 420 l 2,21,22
 210 473 210 473 166 473 c 2,23,-1
 153 473 l 1,24,-1
 153 351 l 1,16,-1
210 150 m 2,25,-1
 210 211 l 2,26,27
 210 226 210 226 201.5 239 c 128,-1,28
 193 252 193 252 180 252 c 2,29,-1
 153 252 l 1,30,-1
 153 107 l 1,31,-1
 180 107 l 2,32,33
 194 107 194 107 202 119 c 128,-1,34
 210 131 210 131 210 150 c 2,25,-1
EndSplineSet
EndChar

StartChar: C
Encoding: 67 67 8
Width: 343
GlyphClass: 2
Flags: W
LayerCount: 2
Fore
SplineSet
327 350 m 1,0,-1
 228 350 l 1,1,-1
 228 433 l 2,2,3
 228 448 228 448 217.5 459.5 c 128,-1,4
 207 471 207 471 192 471 c 128,-1,5
 177 471 177 471 166.5 459.5 c 128,-1,6
 156 448 156 448 156 433 c 2,7,-1
 156 144 l 2,8,9
 156 129 156 129 166.5 118.5 c 128,-1,10
 177 108 177 108 192 108 c 128,-1,11
 207 108 207 108 217.5 118.5 c 128,-1,12
 228 129 228 129 228 144 c 2,13,-1
 228 228 l 1,14,-1
 326 228 l 1,15,-1
 326 133 l 2,16,17
 326 72 326 72 285.5 31 c 128,-1,18
 245 -10 245 -10 180 -10 c 2,19,-1
 174 -10 l 2,20,21
 103 -10 103 -10 62.5 37 c 128,-1,22
 22 84 22 84 22 154 c 2,23,-1
 22 447 l 2,24,25
 22 507 22 507 65.5 549 c 128,-1,26
 109 591 109 591 175 591 c 2,27,-1
 180 591 l 2,28,29
 255 591 255 591 291 543 c 128,-1,30
 327 495 327 495 327 427 c 2,31,-1
 327 350 l 1,0,-1
EndSplineSet
EndChar

StartChar: D
Encoding: 68 68 9
Width: 360
GlyphClass: 2
Flags: W
LayerCount: 2
Fore
SplineSet
339 400 m 2,0,-1
 340 184 l 2,1,2
 341 94 341 94 292.5 47 c 128,-1,3
 244 0 244 0 178 0 c 2,4,-1
 27 0 l 1,5,-1
 27 580 l 1,6,-1
 207 580 l 2,7,8
 264 580 264 580 301.5 535 c 128,-1,9
 339 490 339 490 339 400 c 2,0,-1
153 107 m 1,10,11
 177 107 177 107 194.5 117 c 128,-1,12
 212 127 212 127 212 146 c 2,13,-1
 212 429 l 2,14,15
 212 454 212 454 197.5 462 c 128,-1,16
 183 470 183 470 153 470 c 1,17,-1
 153 107 l 1,10,11
EndSplineSet
EndChar

StartChar: E
Encoding: 69 69 10
Width: 307
GlyphClass: 2
Flags: W
LayerCount: 2
Fore
SplineSet
160 458 m 1,0,-1
 160 340 l 1,1,-1
 231 340 l 1,2,-1
 231 233 l 1,3,-1
 161 233 l 1,4,-1
 161 118 l 1,5,-1
 292 118 l 1,6,-1
 292 0 l 1,7,-1
 27 0 l 1,8,-1
 27 580 l 1,9,-1
 292 580 l 1,10,-1
 292 458 l 1,11,-1
 160 458 l 1,0,-1
EndSplineSet
EndChar

StartChar: F
Encoding: 70 70 11
Width: 298
GlyphClass: 2
Flags: W
LayerCount: 2
Fore
SplineSet
160 458 m 1,0,-1
 160 340 l 1,1,-1
 231 340 l 1,2,-1
 231 233 l 1,3,-1
 161 233 l 1,4,-1
 161 0 l 1,5,-1
 27 0 l 1,6,-1
 27 580 l 1,7,-1
 292 580 l 1,8,-1
 292 458 l 1,9,-1
 160 458 l 1,0,-1
EndSplineSet
EndChar

StartChar: G
Encoding: 71 71 12
Width: 353
GlyphClass: 2
Flags: W
LayerCount: 2
Fore
SplineSet
332 291 m 1,0,-1
 332 0 l 1,1,-1
 263 0 l 1,2,-1
 250 24 l 1,3,4
 239 11 239 11 213.5 0.5 c 128,-1,5
 188 -10 188 -10 161 -10 c 0,6,7
 140 -10 140 -10 118.5 -2 c 128,-1,8
 97 6 97 6 73 26 c 128,-1,9
 49 46 49 46 34.5 88 c 128,-1,10
 20 130 20 130 20 189 c 2,11,-1
 20 413 l 2,12,13
 20 499 20 499 70 544.5 c 128,-1,14
 120 590 120 590 179 590 c 2,15,-1
 186 590 l 2,16,17
 243 590 243 590 283.5 542 c 128,-1,18
 324 494 324 494 324 437 c 2,19,-1
 324 365 l 1,20,-1
 231 365 l 1,21,-1
 231 427 l 2,22,23
 231 445 231 445 218 458 c 128,-1,24
 205 471 205 471 188 471 c 128,-1,25
 171 471 171 471 158.5 458 c 128,-1,26
 146 445 146 445 146 427 c 2,27,-1
 146 138 l 2,28,29
 146 125 146 125 156 115 c 128,-1,30
 166 105 166 105 179 105 c 128,-1,31
 192 105 192 105 202 114.5 c 128,-1,32
 212 124 212 124 212 138 c 2,33,-1
 212 192 l 1,34,-1
 180 192 l 1,35,-1
 180 291 l 1,36,-1
 332 291 l 1,0,-1
EndSplineSet
EndChar

StartChar: H
Encoding: 72 72 13
Width: 378
GlyphClass: 2
Flags: W
LayerCount: 2
Fore
SplineSet
351 580 m 1,0,-1
 351 0 l 1,1,-1
 216 0 l 1,2,-1
 216 232 l 1,3,-1
 162 232 l 1,4,-1
 162 0 l 1,5,-1
 27 0 l 1,6,-1
 27 580 l 1,7,-1
 160 580 l 1,8,-1
 160 346 l 1,9,-1
 214 346 l 1,10,-1
 214 580 l 1,11,-1
 351 580 l 1,0,-1
EndSplineSet
EndChar

StartChar: I
Encoding: 73 73 14
Width: 190
GlyphClass: 2
Flags: W
LayerCount: 2
Fore
SplineSet
27 0 m 1,0,-1
 27 580 l 1,1,-1
 163 580 l 1,2,-1
 163 0 l 1,3,-1
 27 0 l 1,0,-1
EndSplineSet
EndChar

StartChar: J
Encoding: 74 74 15
Width: 338
GlyphClass: 2
Flags: W
LayerCount: 2
Fore
SplineSet
179 580 m 1,0,-1
 313 580 l 1,1,-1
 313 154 l 2,2,3
 313 84 313 84 272.5 37 c 128,-1,4
 232 -10 232 -10 161 -10 c 2,5,-1
 155 -10 l 2,6,7
 90 -10 90 -10 49.5 31 c 128,-1,8
 9 72 9 72 9 133 c 2,9,-1
 9 232 l 1,10,-1
 107 232 l 1,11,-1
 107 144 l 2,12,13
 107 129 107 129 117.5 118.5 c 128,-1,14
 128 108 128 108 143 108 c 128,-1,15
 158 108 158 108 168.5 118.5 c 128,-1,16
 179 129 179 129 179 144 c 2,17,-1
 179 580 l 1,0,-1
EndSplineSet
EndChar

StartChar: K
Encoding: 75 75 16
Width: 353
GlyphClass: 2
Flags: W
LayerCount: 2
Fore
SplineSet
355 0 m 1,0,-1
 223 0 l 1,1,-1
 181 173 l 1,2,-1
 177 208 l 1,3,-1
 162 166 l 1,4,-1
 162 1 l 1,5,-1
 27 1 l 1,6,-1
 27 580 l 1,7,-1
 163 580 l 1,8,-1
 163 494 l 1,9,-1
 159 410 l 1,10,-1
 177 463 l 1,11,-1
 225 580 l 1,12,-1
 348 580 l 1,13,-1
 270 410 l 1,14,-1
 355 0 l 1,0,-1
EndSplineSet
EndChar

StartChar: L
Encoding: 76 76 17
Width: 292
GlyphClass: 2
Flags: W
LayerCount: 2
Fore
SplineSet
288 122 m 1,0,-1
 288 0 l 1,1,-1
 27 0 l 1,2,-1
 28 580 l 1,3,-1
 157 580 l 1,4,-1
 157 122 l 1,5,-1
 288 122 l 1,0,-1
EndSplineSet
EndChar

StartChar: M
Encoding: 77 77 18
Width: 467
GlyphClass: 2
Flags: W
LayerCount: 2
Fore
SplineSet
440 580 m 1,0,-1
 440 0 l 1,1,-1
 311 0 l 1,2,-1
 311 280 l 1,3,-1
 249 0 l 1,4,-1
 195 0 l 1,5,-1
 133 280 l 1,6,-1
 133 0 l 1,7,-1
 27 0 l 1,8,-1
 27 580 l 1,9,-1
 187 580 l 1,10,-1
 240 369 l 1,11,-1
 285 580 l 1,12,-1
 440 580 l 1,0,-1
EndSplineSet
EndChar

StartChar: N
Encoding: 78 78 19
Width: 369
GlyphClass: 2
Flags: W
LayerCount: 2
Fore
SplineSet
342 580 m 1,0,-1
 342 0 l 1,1,-1
 254 0 l 1,2,-1
 133 290 l 1,3,-1
 133 0 l 1,4,-1
 27 0 l 1,5,-1
 27 580 l 1,6,-1
 136 580 l 1,7,-1
 236 358 l 1,8,-1
 236 580 l 1,9,-1
 342 580 l 1,0,-1
EndSplineSet
EndChar

StartChar: O
Encoding: 79 79 20
Width: 358
GlyphClass: 2
Flags: W
LayerCount: 2
Fore
SplineSet
20 182 m 2,0,-1
 20 398 l 2,1,2
 20 484 20 484 61.5 537 c 128,-1,3
 103 590 103 590 182 590 c 0,4,5
 260 590 260 590 299 537.5 c 128,-1,6
 338 485 338 485 338 398 c 2,7,-1
 338 182 l 2,8,9
 338 95 338 95 299 42.5 c 128,-1,10
 260 -10 260 -10 182 -10 c 0,11,12
 103 -10 103 -10 61.5 43 c 128,-1,13
 20 96 20 96 20 182 c 2,0,-1
148 159 m 2,14,15
 148 109 148 109 179 109 c 0,16,17
 211 109 211 109 211 159 c 2,18,-1
 211 421 l 2,19,20
 211 471 211 471 179 471 c 0,21,22
 148 471 148 471 148 421 c 2,23,-1
 148 159 l 2,14,15
EndSplineSet
EndChar

StartChar: P
Encoding: 80 80 21
Width: 338
GlyphClass: 2
Flags: W
LayerCount: 2
Fore
SplineSet
27 0 m 1,0,-1
 27 580 l 1,1,-1
 194 580 l 2,2,3
 260 580 260 580 296.5 535 c 128,-1,4
 333 490 333 490 333 412 c 0,5,6
 333 340 333 340 296.5 296.5 c 128,-1,7
 260 253 260 253 194 253 c 2,8,-1
 155 253 l 1,9,-1
 155 0 l 1,10,-1
 27 0 l 1,0,-1
153 352 m 1,11,-1
 166 352 l 2,12,13
 187 353 187 353 198.5 367 c 128,-1,14
 210 381 210 381 210 403 c 2,15,-1
 210 421 l 2,16,17
 210 474 210 474 166 474 c 2,18,-1
 153 474 l 1,19,-1
 153 352 l 1,11,-1
EndSplineSet
EndChar

StartChar: R
Encoding: 82 82 22
Width: 357
GlyphClass: 2
Flags: W
LayerCount: 2
Fore
SplineSet
27 0 m 1,0,-1
 27 580 l 1,1,-1
 194 580 l 2,2,3
 258 580 258 580 295.5 538.5 c 128,-1,4
 333 497 333 497 333 436 c 0,5,6
 333 376 333 376 320 351.5 c 128,-1,7
 307 327 307 327 275 314 c 1,8,-1
 275 312 l 1,9,10
 337 285 337 285 335 225 c 0,11,12
 332 102 332 102 333 75 c 0,13,14
 333 60 333 60 337 41 c 128,-1,15
 341 22 341 22 344 11 c 2,16,-1
 348 0 l 1,17,-1
 225 0 l 1,18,19
 208 21 208 21 208 81 c 2,20,-1
 209 221 l 2,21,22
 209 235 209 235 200.5 243.5 c 128,-1,23
 192 252 192 252 179 252 c 2,24,-1
 155 252 l 1,25,-1
 155 0 l 1,26,-1
 27 0 l 1,0,-1
153 351 m 1,27,-1
 166 351 l 2,28,29
 187 352 187 352 198.5 366 c 128,-1,30
 210 380 210 380 210 402 c 2,31,-1
 210 420 l 2,32,33
 210 473 210 473 166 473 c 2,34,-1
 153 473 l 1,35,-1
 153 351 l 1,27,-1
EndSplineSet
EndChar

StartChar: S
Encoding: 83 83 23
Width: 342
GlyphClass: 2
Flags: W
LayerCount: 2
Fore
SplineSet
211 345 m 0,0,1
 284 300 284 300 310 257 c 128,-1,2
 336 214 336 214 336 153 c 0,3,4
 336 77 336 77 291 33.5 c 128,-1,5
 246 -10 246 -10 178 -10 c 2,6,-1
 162 -10 l 2,7,8
 87 -10 87 -10 48 38.5 c 128,-1,9
 9 87 9 87 9 155 c 2,10,-1
 9 210 l 1,11,-1
 95 210 l 1,12,-1
 95 163 l 2,13,14
 95 135 95 135 109 118.5 c 128,-1,15
 123 102 123 102 150 102 c 0,16,17
 174 102 174 102 190.5 117 c 128,-1,18
 207 132 207 132 207 154 c 0,19,20
 207 197 207 197 149 236 c 0,21,22
 23 320 23 320 23 454 c 0,23,24
 23 510 23 510 61 550 c 128,-1,25
 99 590 99 590 165 590 c 0,26,27
 235 590 235 590 271.5 551.5 c 128,-1,28
 308 513 308 513 308 447 c 2,29,-1
 308 390 l 1,30,-1
 218 390 l 1,31,-1
 218 437 l 2,32,33
 218 459 218 459 205 469.5 c 128,-1,34
 192 480 192 480 175 480 c 0,35,36
 159 480 159 480 147.5 468.5 c 128,-1,37
 136 457 136 457 136 437 c 0,38,39
 136 391 136 391 211 345 c 0,0,1
EndSplineSet
EndChar

StartChar: T
Encoding: 84 84 24
Width: 370
GlyphClass: 2
Flags: W
LayerCount: 2
Fore
SplineSet
365 580 m 1,0,-1
 365 459 l 1,1,-1
 253 459 l 1,2,-1
 253 0 l 1,3,-1
 117 0 l 1,4,-1
 117 459 l 1,5,-1
 5 459 l 1,6,-1
 5 580 l 1,7,-1
 365 580 l 1,0,-1
EndSplineSet
EndChar

StartChar: U
Encoding: 85 85 25
Width: 365
GlyphClass: 2
Flags: W
LayerCount: 2
Fore
SplineSet
159 580 m 1,0,-1
 159 154 l 2,1,2
 159 108 159 108 200 108 c 128,-1,3
 241 108 241 108 241 154 c 2,4,-1
 241 580 l 1,5,-1
 339 580 l 1,6,-1
 339 133 l 2,7,8
 339 72 339 72 298 31 c 128,-1,9
 257 -10 257 -10 188 -10 c 2,10,-1
 182 -10 l 2,11,12
 107 -10 107 -10 66 37 c 128,-1,13
 25 84 25 84 25 154 c 2,14,-1
 25 580 l 1,15,-1
 159 580 l 1,0,-1
EndSplineSet
EndChar

StartChar: V
Encoding: 86 86 26
Width: 312
GlyphClass: 2
Flags: W
LayerCount: 2
Fore
SplineSet
210 580 m 1,0,-1
 305 580 l 1,1,-1
 221 0 l 1,2,-1
 100 0 l 1,3,-1
 -2 580 l 1,4,-1
 128 580 l 1,5,-1
 171 274 l 1,6,-1
 172 274 l 1,7,-1
 210 580 l 1,0,-1
EndSplineSet
EndChar

StartChar: W
Encoding: 87 87 27
Width: 524
GlyphClass: 2
Flags: W
LayerCount: 2
Fore
SplineSet
-2 580 m 1,0,-1
 128 580 l 1,1,-1
 171 274 l 1,2,-1
 172 274 l 1,3,-1
 210 580 l 1,4,-1
 340 580 l 1,5,-1
 383 274 l 1,6,-1
 384 274 l 1,7,-1
 422 580 l 1,8,-1
 517 580 l 1,9,-1
 433 0 l 1,10,-1
 312 0 l 1,11,-1
 262 284 l 1,12,-1
 221 0 l 1,13,-1
 100 0 l 1,14,-1
 -2 580 l 1,0,-1
EndSplineSet
EndChar

StartChar: Y
Encoding: 89 89 28
Width: 310
GlyphClass: 2
Flags: W
LayerCount: 2
Fore
SplineSet
207 580 m 1,0,-1
 302 580 l 1,1,-1
 218 290 l 1,2,-1
 218 0 l 1,3,-1
 97 0 l 1,4,-1
 97 290 l 1,5,-1
 -5 580 l 1,6,-1
 125 580 l 1,7,-1
 169 414 l 1,8,-1
 170 414 l 1,9,-1
 207 580 l 1,0,-1
EndSplineSet
EndChar

StartChar: endash
Encoding: 8211 8211 29
Width: 399
GlyphClass: 2
Flags: W
LayerCount: 2
Fore
SplineSet
20 235 m 1,0,-1
 20 346 l 1,1,-1
 379 346 l 1,2,-1
 379 235 l 1,3,-1
 20 235 l 1,0,-1
EndSplineSet
EndChar

StartChar: a
Encoding: 97 97 30
Width: 312
Flags: W
LayerCount: 2
Fore
SplineSet
314 0 m 1,0,-1
 184 0 l 1,1,-1
 176 64 l 1,2,-1
 109 64 l 1,3,-1
 102 0 l 1,4,-1
 7 0 l 1,5,-1
 91 580 l 1,6,-1
 212 580 l 1,7,-1
 314 0 l 1,0,-1
163 136 m 1,8,-1
 141 306 l 1,9,-1
 140 306 l 1,10,-1
 116 136 l 1,11,-1
 163 136 l 1,8,-1
EndSplineSet
EndChar

StartChar: b
Encoding: 98 98 31
Width: 351
Flags: W
LayerCount: 2
Fore
SplineSet
335 225 m 2,0,-1
 334 144 l 2,1,2
 333 83 333 83 296 41.5 c 128,-1,3
 259 0 259 0 195 0 c 2,4,-1
 27 0 l 1,5,-1
 27 580 l 1,6,-1
 194 580 l 2,7,8
 258 580 258 580 295.5 538.5 c 128,-1,9
 333 497 333 497 333 436 c 0,10,11
 333 376 333 376 320 351.5 c 128,-1,12
 307 327 307 327 275 314 c 1,13,-1
 275 312 l 1,14,15
 335 286 335 286 335 225 c 2,0,-1
153 351 m 1,16,-1
 166 351 l 2,17,18
 187 352 187 352 198.5 366 c 128,-1,19
 210 380 210 380 210 402 c 2,20,-1
 210 420 l 2,21,22
 210 473 210 473 166 473 c 2,23,-1
 153 473 l 1,24,-1
 153 351 l 1,16,-1
210 150 m 2,25,-1
 210 211 l 2,26,27
 210 226 210 226 201.5 239 c 128,-1,28
 193 252 193 252 180 252 c 2,29,-1
 153 252 l 1,30,-1
 153 107 l 1,31,-1
 180 107 l 2,32,33
 194 107 194 107 202 119 c 128,-1,34
 210 131 210 131 210 150 c 2,25,-1
EndSplineSet
EndChar

StartChar: c
Encoding: 99 99 32
Width: 343
Flags: W
LayerCount: 2
Fore
SplineSet
327 350 m 1,0,-1
 228 350 l 1,1,-1
 228 433 l 2,2,3
 228 448 228 448 217.5 459.5 c 128,-1,4
 207 471 207 471 192 471 c 128,-1,5
 177 471 177 471 166.5 459.5 c 128,-1,6
 156 448 156 448 156 433 c 2,7,-1
 156 144 l 2,8,9
 156 129 156 129 166.5 118.5 c 128,-1,10
 177 108 177 108 192 108 c 128,-1,11
 207 108 207 108 217.5 118.5 c 128,-1,12
 228 129 228 129 228 144 c 2,13,-1
 228 228 l 1,14,-1
 326 228 l 1,15,-1
 326 133 l 2,16,17
 326 72 326 72 285.5 31 c 128,-1,18
 245 -10 245 -10 180 -10 c 2,19,-1
 174 -10 l 2,20,21
 103 -10 103 -10 62.5 37 c 128,-1,22
 22 84 22 84 22 154 c 2,23,-1
 22 447 l 2,24,25
 22 507 22 507 65.5 549 c 128,-1,26
 109 591 109 591 175 591 c 2,27,-1
 180 591 l 2,28,29
 255 591 255 591 291 543 c 128,-1,30
 327 495 327 495 327 427 c 2,31,-1
 327 350 l 1,0,-1
EndSplineSet
EndChar

StartChar: d
Encoding: 100 100 33
Width: 360
Flags: W
LayerCount: 2
Fore
SplineSet
339 400 m 2,0,-1
 340 184 l 2,1,2
 341 94 341 94 292.5 47 c 128,-1,3
 244 0 244 0 178 0 c 2,4,-1
 27 0 l 1,5,-1
 27 580 l 1,6,-1
 207 580 l 2,7,8
 264 580 264 580 301.5 535 c 128,-1,9
 339 490 339 490 339 400 c 2,0,-1
153 107 m 1,10,11
 177 107 177 107 194.5 117 c 128,-1,12
 212 127 212 127 212 146 c 2,13,-1
 212 429 l 2,14,15
 212 454 212 454 197.5 462 c 128,-1,16
 183 470 183 470 153 470 c 1,17,-1
 153 107 l 1,10,11
EndSplineSet
EndChar

StartChar: e
Encoding: 101 101 34
Width: 307
Flags: W
LayerCount: 2
Fore
SplineSet
160 458 m 1,0,-1
 160 340 l 1,1,-1
 231 340 l 1,2,-1
 231 233 l 1,3,-1
 161 233 l 1,4,-1
 161 118 l 1,5,-1
 292 118 l 1,6,-1
 292 0 l 1,7,-1
 27 0 l 1,8,-1
 27 580 l 1,9,-1
 292 580 l 1,10,-1
 292 458 l 1,11,-1
 160 458 l 1,0,-1
EndSplineSet
EndChar

StartChar: f
Encoding: 102 102 35
Width: 298
Flags: W
LayerCount: 2
Fore
SplineSet
160 458 m 1,0,-1
 160 340 l 1,1,-1
 231 340 l 1,2,-1
 231 233 l 1,3,-1
 161 233 l 1,4,-1
 161 0 l 1,5,-1
 27 0 l 1,6,-1
 27 580 l 1,7,-1
 292 580 l 1,8,-1
 292 458 l 1,9,-1
 160 458 l 1,0,-1
EndSplineSet
EndChar

StartChar: g
Encoding: 103 103 36
Width: 353
Flags: W
LayerCount: 2
Fore
SplineSet
332 291 m 1,0,-1
 332 0 l 1,1,-1
 263 0 l 1,2,-1
 250 24 l 1,3,4
 239 11 239 11 213.5 0.5 c 128,-1,5
 188 -10 188 -10 161 -10 c 0,6,7
 140 -10 140 -10 118.5 -2 c 128,-1,8
 97 6 97 6 73 26 c 128,-1,9
 49 46 49 46 34.5 88 c 128,-1,10
 20 130 20 130 20 189 c 2,11,-1
 20 413 l 2,12,13
 20 499 20 499 70 544.5 c 128,-1,14
 120 590 120 590 179 590 c 2,15,-1
 186 590 l 2,16,17
 243 590 243 590 283.5 542 c 128,-1,18
 324 494 324 494 324 437 c 2,19,-1
 324 365 l 1,20,-1
 231 365 l 1,21,-1
 231 427 l 2,22,23
 231 445 231 445 218 458 c 128,-1,24
 205 471 205 471 188 471 c 128,-1,25
 171 471 171 471 158.5 458 c 128,-1,26
 146 445 146 445 146 427 c 2,27,-1
 146 138 l 2,28,29
 146 125 146 125 156 115 c 128,-1,30
 166 105 166 105 179 105 c 128,-1,31
 192 105 192 105 202 114.5 c 128,-1,32
 212 124 212 124 212 138 c 2,33,-1
 212 192 l 1,34,-1
 180 192 l 1,35,-1
 180 291 l 1,36,-1
 332 291 l 1,0,-1
EndSplineSet
EndChar

StartChar: h
Encoding: 104 104 37
Width: 378
Flags: W
LayerCount: 2
Fore
SplineSet
351 580 m 1,0,-1
 351 0 l 1,1,-1
 216 0 l 1,2,-1
 216 232 l 1,3,-1
 162 232 l 1,4,-1
 162 0 l 1,5,-1
 27 0 l 1,6,-1
 27 580 l 1,7,-1
 160 580 l 1,8,-1
 160 346 l 1,9,-1
 214 346 l 1,10,-1
 214 580 l 1,11,-1
 351 580 l 1,0,-1
EndSplineSet
EndChar

StartChar: i
Encoding: 105 105 38
Width: 190
Flags: W
LayerCount: 2
Fore
SplineSet
27 0 m 1,0,-1
 27 580 l 1,1,-1
 163 580 l 1,2,-1
 163 0 l 1,3,-1
 27 0 l 1,0,-1
EndSplineSet
EndChar

StartChar: j
Encoding: 106 106 39
Width: 338
Flags: W
LayerCount: 2
Fore
SplineSet
179 580 m 1,0,-1
 313 580 l 1,1,-1
 313 154 l 2,2,3
 313 84 313 84 272.5 37 c 128,-1,4
 232 -10 232 -10 161 -10 c 2,5,-1
 155 -10 l 2,6,7
 90 -10 90 -10 49.5 31 c 128,-1,8
 9 72 9 72 9 133 c 2,9,-1
 9 232 l 1,10,-1
 107 232 l 1,11,-1
 107 144 l 2,12,13
 107 129 107 129 117.5 118.5 c 128,-1,14
 128 108 128 108 143 108 c 128,-1,15
 158 108 158 108 168.5 118.5 c 128,-1,16
 179 129 179 129 179 144 c 2,17,-1
 179 580 l 1,0,-1
EndSplineSet
EndChar

StartChar: k
Encoding: 107 107 40
Width: 353
Flags: W
LayerCount: 2
Fore
SplineSet
355 0 m 1,0,-1
 223 0 l 1,1,-1
 181 173 l 1,2,-1
 177 208 l 1,3,-1
 162 166 l 1,4,-1
 162 1 l 1,5,-1
 27 1 l 1,6,-1
 27 580 l 1,7,-1
 163 580 l 1,8,-1
 163 494 l 1,9,-1
 159 410 l 1,10,-1
 177 463 l 1,11,-1
 225 580 l 1,12,-1
 348 580 l 1,13,-1
 270 410 l 1,14,-1
 355 0 l 1,0,-1
EndSplineSet
EndChar

StartChar: l
Encoding: 108 108 41
Width: 292
Flags: W
LayerCount: 2
Fore
SplineSet
288 122 m 1,0,-1
 288 0 l 1,1,-1
 27 0 l 1,2,-1
 28 580 l 1,3,-1
 157 580 l 1,4,-1
 157 122 l 1,5,-1
 288 122 l 1,0,-1
EndSplineSet
EndChar

StartChar: m
Encoding: 109 109 42
Width: 467
Flags: W
LayerCount: 2
Fore
SplineSet
440 580 m 1,0,-1
 440 0 l 1,1,-1
 311 0 l 1,2,-1
 311 280 l 1,3,-1
 249 0 l 1,4,-1
 195 0 l 1,5,-1
 133 280 l 1,6,-1
 133 0 l 1,7,-1
 27 0 l 1,8,-1
 27 580 l 1,9,-1
 187 580 l 1,10,-1
 240 369 l 1,11,-1
 285 580 l 1,12,-1
 440 580 l 1,0,-1
EndSplineSet
EndChar

StartChar: n
Encoding: 110 110 43
Width: 369
Flags: W
LayerCount: 2
Fore
SplineSet
342 580 m 1,0,-1
 342 0 l 1,1,-1
 254 0 l 1,2,-1
 133 290 l 1,3,-1
 133 0 l 1,4,-1
 27 0 l 1,5,-1
 27 580 l 1,6,-1
 136 580 l 1,7,-1
 236 358 l 1,8,-1
 236 580 l 1,9,-1
 342 580 l 1,0,-1
EndSplineSet
EndChar

StartChar: o
Encoding: 111 111 44
Width: 358
Flags: W
LayerCount: 2
Fore
SplineSet
20 182 m 2,0,-1
 20 398 l 2,1,2
 20 484 20 484 61.5 537 c 128,-1,3
 103 590 103 590 182 590 c 0,4,5
 260 590 260 590 299 537.5 c 128,-1,6
 338 485 338 485 338 398 c 2,7,-1
 338 182 l 2,8,9
 338 95 338 95 299 42.5 c 128,-1,10
 260 -10 260 -10 182 -10 c 0,11,12
 103 -10 103 -10 61.5 43 c 128,-1,13
 20 96 20 96 20 182 c 2,0,-1
148 159 m 2,14,15
 148 109 148 109 179 109 c 0,16,17
 211 109 211 109 211 159 c 2,18,-1
 211 421 l 2,19,20
 211 471 211 471 179 471 c 0,21,22
 148 471 148 471 148 421 c 2,23,-1
 148 159 l 2,14,15
EndSplineSet
EndChar

StartChar: p
Encoding: 112 112 45
Width: 338
Flags: W
LayerCount: 2
Fore
SplineSet
27 0 m 1,0,-1
 27 580 l 1,1,-1
 194 580 l 2,2,3
 260 580 260 580 296.5 535 c 128,-1,4
 333 490 333 490 333 412 c 0,5,6
 333 340 333 340 296.5 296.5 c 128,-1,7
 260 253 260 253 194 253 c 2,8,-1
 155 253 l 1,9,-1
 155 0 l 1,10,-1
 27 0 l 1,0,-1
153 352 m 1,11,-1
 166 352 l 2,12,13
 187 353 187 353 198.5 367 c 128,-1,14
 210 381 210 381 210 403 c 2,15,-1
 210 421 l 2,16,17
 210 474 210 474 166 474 c 2,18,-1
 153 474 l 1,19,-1
 153 352 l 1,11,-1
EndSplineSet
EndChar

StartChar: r
Encoding: 114 114 47
Width: 357
Flags: W
LayerCount: 2
Fore
SplineSet
27 0 m 1,0,-1
 27 580 l 1,1,-1
 194 580 l 2,2,3
 258 580 258 580 295.5 538.5 c 128,-1,4
 333 497 333 497 333 436 c 0,5,6
 333 376 333 376 320 351.5 c 128,-1,7
 307 327 307 327 275 314 c 1,8,-1
 275 312 l 1,9,10
 337 285 337 285 335 225 c 0,11,12
 332 102 332 102 333 75 c 0,13,14
 333 60 333 60 337 41 c 128,-1,15
 341 22 341 22 344 11 c 2,16,-1
 348 0 l 1,17,-1
 225 0 l 1,18,19
 208 21 208 21 208 81 c 2,20,-1
 209 221 l 2,21,22
 209 235 209 235 200.5 243.5 c 128,-1,23
 192 252 192 252 179 252 c 2,24,-1
 155 252 l 1,25,-1
 155 0 l 1,26,-1
 27 0 l 1,0,-1
153 351 m 1,27,-1
 166 351 l 2,28,29
 187 352 187 352 198.5 366 c 128,-1,30
 210 380 210 380 210 402 c 2,31,-1
 210 420 l 2,32,33
 210 473 210 473 166 473 c 2,34,-1
 153 473 l 1,35,-1
 153 351 l 1,27,-1
EndSplineSet
EndChar

StartChar: s
Encoding: 115 115 48
Width: 342
Flags: W
LayerCount: 2
Fore
SplineSet
211 345 m 0,0,1
 284 300 284 300 310 257 c 128,-1,2
 336 214 336 214 336 153 c 0,3,4
 336 77 336 77 291 33.5 c 128,-1,5
 246 -10 246 -10 178 -10 c 2,6,-1
 162 -10 l 2,7,8
 87 -10 87 -10 48 38.5 c 128,-1,9
 9 87 9 87 9 155 c 2,10,-1
 9 210 l 1,11,-1
 95 210 l 1,12,-1
 95 163 l 2,13,14
 95 135 95 135 109 118.5 c 128,-1,15
 123 102 123 102 150 102 c 0,16,17
 174 102 174 102 190.5 117 c 128,-1,18
 207 132 207 132 207 154 c 0,19,20
 207 197 207 197 149 236 c 0,21,22
 23 320 23 320 23 454 c 0,23,24
 23 510 23 510 61 550 c 128,-1,25
 99 590 99 590 165 590 c 0,26,27
 235 590 235 590 271.5 551.5 c 128,-1,28
 308 513 308 513 308 447 c 2,29,-1
 308 390 l 1,30,-1
 218 390 l 1,31,-1
 218 437 l 2,32,33
 218 459 218 459 205 469.5 c 128,-1,34
 192 480 192 480 175 480 c 0,35,36
 159 480 159 480 147.5 468.5 c 128,-1,37
 136 457 136 457 136 437 c 0,38,39
 136 391 136 391 211 345 c 0,0,1
EndSplineSet
EndChar

StartChar: t
Encoding: 116 116 49
Width: 370
Flags: W
LayerCount: 2
Fore
SplineSet
365 580 m 1,0,-1
 365 459 l 1,1,-1
 253 459 l 1,2,-1
 253 0 l 1,3,-1
 117 0 l 1,4,-1
 117 459 l 1,5,-1
 5 459 l 1,6,-1
 5 580 l 1,7,-1
 365 580 l 1,0,-1
EndSplineSet
EndChar

StartChar: u
Encoding: 117 117 50
Width: 365
Flags: W
LayerCount: 2
Fore
SplineSet
159 580 m 1,0,-1
 159 154 l 2,1,2
 159 108 159 108 200 108 c 128,-1,3
 241 108 241 108 241 154 c 2,4,-1
 241 580 l 1,5,-1
 339 580 l 1,6,-1
 339 133 l 2,7,8
 339 72 339 72 298 31 c 128,-1,9
 257 -10 257 -10 188 -10 c 2,10,-1
 182 -10 l 2,11,12
 107 -10 107 -10 66 37 c 128,-1,13
 25 84 25 84 25 154 c 2,14,-1
 25 580 l 1,15,-1
 159 580 l 1,0,-1
EndSplineSet
EndChar

StartChar: v
Encoding: 118 118 51
Width: 312
Flags: W
LayerCount: 2
Fore
SplineSet
210 580 m 1,0,-1
 305 580 l 1,1,-1
 221 0 l 1,2,-1
 100 0 l 1,3,-1
 -2 580 l 1,4,-1
 128 580 l 1,5,-1
 171 274 l 1,6,-1
 172 274 l 1,7,-1
 210 580 l 1,0,-1
EndSplineSet
EndChar

StartChar: w
Encoding: 119 119 52
Width: 524
Flags: W
LayerCount: 2
Fore
SplineSet
-2 580 m 1,0,-1
 128 580 l 1,1,-1
 171 274 l 1,2,-1
 172 274 l 1,3,-1
 210 580 l 1,4,-1
 340 580 l 1,5,-1
 383 274 l 1,6,-1
 384 274 l 1,7,-1
 422 580 l 1,8,-1
 517 580 l 1,9,-1
 433 0 l 1,10,-1
 312 0 l 1,11,-1
 262 284 l 1,12,-1
 221 0 l 1,13,-1
 100 0 l 1,14,-1
 -2 580 l 1,0,-1
EndSplineSet
EndChar

StartChar: y
Encoding: 121 121 53
Width: 310
Flags: W
LayerCount: 2
Fore
SplineSet
207 580 m 1,0,-1
 302 580 l 1,1,-1
 218 290 l 1,2,-1
 218 0 l 1,3,-1
 97 0 l 1,4,-1
 97 290 l 1,5,-1
 -5 580 l 1,6,-1
 125 580 l 1,7,-1
 169 414 l 1,8,-1
 170 414 l 1,9,-1
 207 580 l 1,0,-1
EndSplineSet
EndChar
